<svg width="1873" height="277" viewBox="0 0 1873 277" fill="none" xmlns="http://www.w3.org/2000/svg">
<rect width="258" height="258" rx="54.3158" fill="#1C58F7"/>
<path d="M47.7195 196.895H88.4563V129L129.193 169.737L169.93 129V196.895H210.667V47.5263L129.193 129L47.7195 47.5263V196.895Z" fill="#F4F4F2"/>
<path d="M325.156 226V45.144H360.001L415.946 173.672L472.012 45.144H506.857V226H475.99V100.848L431.018 205.744H400.995L355.902 100.606V226H325.156ZM613.808 229.255C556.416 229.255 525.068 182.595 525.068 135.451C525.068 88.67 556.416 41.8886 613.808 41.8886C671.199 41.8886 702.548 88.67 702.548 135.451C702.548 182.595 671.199 229.255 613.808 229.255ZM613.808 197.063C649.738 197.063 669.632 168.608 669.632 135.451C669.632 102.294 649.738 73.9604 613.808 73.9604C577.998 73.9604 557.983 102.294 557.983 135.451C557.983 168.608 577.998 197.063 613.808 197.063ZM720.879 226V45.144H783.455C842.053 45.144 871.231 89.8757 871.231 135.693C871.231 181.751 842.294 226 782.732 226H720.879ZM780.682 76.2512C772.483 76.2512 762.114 76.2512 752.228 76.2512V194.893C762.114 194.893 772.483 194.893 780.682 194.893C818.421 194.29 838.918 169.211 838.918 135.451C838.918 101.692 818.3 76.8541 780.682 76.2512ZM889.562 226V45.144H958.408C999.041 45.144 1025.69 65.1587 1025.69 103.5C1025.69 141.721 999.041 161.856 958.408 161.856H921.031V226H889.562ZM959.976 75.2866C948.642 75.1661 934.656 75.1661 921.031 75.2866V131.714C934.656 131.834 948.642 131.834 959.976 131.714C981.196 131.473 993.615 121.345 993.615 103.5C993.615 85.7763 981.196 75.5278 959.976 75.2866ZM1088.99 229.135C1049.32 229.135 1026.9 196.34 1026.9 162.7C1026.9 128.699 1049.56 96.2659 1088.51 96.2659C1105.15 96.2659 1117.93 103.862 1124.68 112.905V99.4008H1155.55V226H1128.78L1127.21 211.29C1119.98 221.057 1106.84 229.135 1088.99 229.135ZM1091.64 199.836C1113.11 199.836 1125.52 182.836 1125.52 162.7C1125.52 142.565 1113.11 125.565 1091.64 125.565C1070.06 125.565 1057.76 142.565 1057.76 162.7C1057.76 182.836 1070.06 199.836 1091.64 199.836ZM1216.2 216.354L1168.33 101.209V99.4008H1201.13L1237.06 195.857L1272.14 99.4008H1304.94V101.209L1232.96 276.64H1201.13V274.831L1229.58 216.354H1216.2ZM1318.57 226V98.1951H1320.38L1341.84 105.791C1349.55 99.7625 1359.32 96.2659 1371.14 96.2659C1390.91 96.2659 1402.85 107.841 1407.79 115.075C1412.49 108.323 1425.75 96.2659 1445.05 96.2659C1480.86 96.2659 1495.81 120.742 1495.93 154.381C1496.17 178.013 1495.93 202.368 1495.93 226H1465.78C1465.78 203.333 1466.15 177.41 1465.78 154.743C1465.54 138.104 1460 125.685 1444.08 125.685C1428.29 125.685 1422.74 138.104 1422.5 154.743C1422.02 177.41 1422.5 203.333 1422.5 226H1392.12C1392.12 203.333 1392.48 177.41 1392.12 154.743C1391.75 138.104 1386.33 125.685 1370.41 125.685C1354.62 125.685 1349.07 138.104 1348.83 154.743C1348.35 177.41 1348.83 203.333 1348.83 226H1318.57ZM1576.59 229.135C1535 229.135 1511.24 197.545 1511.24 162.942C1511.24 126.529 1534.63 96.2659 1573.1 96.2659C1611.2 96.2659 1635.67 124.962 1632.66 164.63C1632.42 168.729 1631.94 172.467 1631.33 175.36H1543.2C1545.25 189.467 1556.82 202.609 1576.23 202.73C1590.34 202.73 1601.31 195.978 1609.51 187.779L1628.44 206.468C1616.62 218.886 1600.47 229.135 1576.59 229.135ZM1543.32 152.693H1602.52C1602.52 136.537 1591.91 122.55 1573.46 122.55C1556.58 122.43 1545.12 135.572 1543.32 152.693ZM1652.2 226C1652.2 202.609 1652.08 180.304 1652.2 156.913V98.1951H1654L1675.83 106.153C1685.11 99.7625 1697.05 96.2659 1711.16 96.2659C1748.05 96.2659 1769.87 120.742 1770.11 156.913C1770.23 180.304 1770.11 202.609 1770.11 226H1738.89C1738.89 203.815 1739.25 181.509 1738.89 159.324C1738.52 139.43 1729.48 125.685 1711.16 125.685C1692.95 125.685 1683.79 139.43 1683.42 159.324C1683.42 162.459 1683.3 165.594 1683.3 168.729V197.666C1683.3 207.07 1683.42 216.595 1683.42 226H1652.2ZM1847.28 226C1813.28 226 1805.08 206.95 1805.08 178.254V128.82H1778.44V99.4008H1805.08V57.6833H1806.89L1836.19 66.1233V99.4008H1869.47V128.82H1836.19V174.396C1836.19 191.758 1839.21 198.51 1852.83 198.751C1859.46 198.872 1865.49 198.751 1872.24 198.751V226H1847.28Z" fill="#1E1E1E"/>
</svg> 